<mxfile host="Electron" modified="2023-11-24T15:07:10.720Z" agent="Mozilla/5.0 (Windows NT 10.0; Win64; x64) AppleWebKit/537.36 (KHTML, like Gecko) draw.io/22.1.2 Chrome/114.0.5735.289 Electron/25.9.4 Safari/537.36" etag="ffuvWCtTUwk8hXui0n9V" version="22.1.2" type="device">
  <diagram name="Page-1" id="AfDlACmGQdI-kjG6up-f">
    <mxGraphModel dx="1020" dy="520" grid="1" gridSize="10" guides="1" tooltips="1" connect="1" arrows="1" fold="1" page="1" pageScale="1" pageWidth="2336" pageHeight="1654" math="0" shadow="0">
      <root>
        <mxCell id="0" />
        <mxCell id="1" parent="0" />
        <mxCell id="zIh2OHhjwxsGoTC7HjIQ-5" value="" style="rounded=1;whiteSpace=wrap;html=1;dashed=1" parent="1" vertex="1">
          <mxGeometry x="1159" y="410" width="252" height="140" as="geometry" />
        </mxCell>
        <mxCell id="RTWtIBDPe_BRNrza61l3-53" style="edgeStyle=orthogonalEdgeStyle;rounded=0;orthogonalLoop=1;jettySize=auto;html=1;exitX=1;exitY=0.5;exitDx=0;exitDy=0;" parent="1" source="l6qQuCx8Cb2vMG7cOWxI-2" target="RTWtIBDPe_BRNrza61l3-2" edge="1">
          <mxGeometry relative="1" as="geometry">
            <mxPoint x="440" y="240" as="sourcePoint" />
          </mxGeometry>
        </mxCell>
        <mxCell id="RTWtIBDPe_BRNrza61l3-4" style="edgeStyle=none;rounded=0;orthogonalLoop=1;jettySize=auto;html=1;exitX=1;exitY=0.5;exitDx=0;exitDy=0;entryX=0;entryY=0.5;entryDx=0;entryDy=0;" parent="1" source="RTWtIBDPe_BRNrza61l3-2" target="RTWtIBDPe_BRNrza61l3-10" edge="1">
          <mxGeometry relative="1" as="geometry">
            <mxPoint x="650" y="190" as="targetPoint" />
          </mxGeometry>
        </mxCell>
        <mxCell id="RTWtIBDPe_BRNrza61l3-5" value="yes" style="edgeLabel;html=1;align=center;verticalAlign=middle;resizable=0;points=[];" parent="RTWtIBDPe_BRNrza61l3-4" vertex="1" connectable="0">
          <mxGeometry x="0.2451" y="2" relative="1" as="geometry">
            <mxPoint as="offset" />
          </mxGeometry>
        </mxCell>
        <mxCell id="RTWtIBDPe_BRNrza61l3-6" style="edgeStyle=none;rounded=0;orthogonalLoop=1;jettySize=auto;html=1;exitX=1;exitY=0.5;exitDx=0;exitDy=0;entryX=0;entryY=0.5;entryDx=0;entryDy=0;" parent="1" source="RTWtIBDPe_BRNrza61l3-2" target="RTWtIBDPe_BRNrza61l3-8" edge="1">
          <mxGeometry relative="1" as="geometry">
            <mxPoint x="650" y="300" as="targetPoint" />
            <mxPoint x="570" y="280" as="sourcePoint" />
          </mxGeometry>
        </mxCell>
        <mxCell id="RTWtIBDPe_BRNrza61l3-7" value="no" style="edgeLabel;html=1;align=center;verticalAlign=middle;resizable=0;points=[];" parent="RTWtIBDPe_BRNrza61l3-6" vertex="1" connectable="0">
          <mxGeometry x="0.2451" y="2" relative="1" as="geometry">
            <mxPoint as="offset" />
          </mxGeometry>
        </mxCell>
        <mxCell id="RTWtIBDPe_BRNrza61l3-11" style="edgeStyle=none;rounded=0;orthogonalLoop=1;jettySize=auto;html=1;exitX=0.5;exitY=0;exitDx=0;exitDy=0;entryX=0.5;entryY=1;entryDx=0;entryDy=0;" parent="1" source="RTWtIBDPe_BRNrza61l3-8" target="RTWtIBDPe_BRNrza61l3-10" edge="1">
          <mxGeometry relative="1" as="geometry" />
        </mxCell>
        <mxCell id="RTWtIBDPe_BRNrza61l3-8" value="Ask your manager" style="rounded=0;whiteSpace=wrap;html=1;" parent="1" vertex="1">
          <mxGeometry x="667.5" y="260" width="135" height="60" as="geometry" />
        </mxCell>
        <mxCell id="RTWtIBDPe_BRNrza61l3-17" style="edgeStyle=none;rounded=0;orthogonalLoop=1;jettySize=auto;html=1;exitX=1;exitY=0.5;exitDx=0;exitDy=0;entryX=0;entryY=0.5;entryDx=0;entryDy=0;" parent="1" source="RTWtIBDPe_BRNrza61l3-10" target="RTWtIBDPe_BRNrza61l3-16" edge="1">
          <mxGeometry relative="1" as="geometry" />
        </mxCell>
        <mxCell id="RTWtIBDPe_BRNrza61l3-19" style="edgeStyle=none;rounded=0;orthogonalLoop=1;jettySize=auto;html=1;exitX=1;exitY=0.5;exitDx=0;exitDy=0;" parent="1" source="RTWtIBDPe_BRNrza61l3-16" target="RTWtIBDPe_BRNrza61l3-18" edge="1">
          <mxGeometry relative="1" as="geometry" />
        </mxCell>
        <mxCell id="RTWtIBDPe_BRNrza61l3-23" value="" style="group" parent="1" vertex="1" connectable="0">
          <mxGeometry x="1210" y="50" width="210" height="90" as="geometry" />
        </mxCell>
        <mxCell id="RTWtIBDPe_BRNrza61l3-22" value="&lt;div style=&quot;text-align: justify;&quot;&gt;&lt;font style=&quot;font-size: 10px;&quot; face=&quot;Lucida Console&quot;&gt;&lt;span style=&quot;background-color: initial;&quot;&gt;git init&lt;/span&gt;&lt;br&gt;&lt;/font&gt;&lt;/div&gt;&lt;div style=&quot;text-align: justify;&quot;&gt;&lt;font style=&quot;font-size: 10px;&quot; face=&quot;Lucida Console&quot;&gt;git add .&lt;/font&gt;&lt;/div&gt;&lt;div style=&quot;text-align: justify;&quot;&gt;&lt;font style=&quot;font-size: 10px;&quot; face=&quot;Lucida Console&quot;&gt;git commit -m &quot;init&quot;&lt;/font&gt;&lt;/div&gt;&lt;div style=&quot;text-align: justify;&quot;&gt;&lt;font style=&quot;font-size: 10px;&quot; face=&quot;Lucida Console&quot;&gt;git branch -M main&lt;/font&gt;&lt;/div&gt;&lt;div style=&quot;text-align: justify;&quot;&gt;&lt;font style=&quot;font-size: 10px;&quot; face=&quot;Lucida Console&quot;&gt;git remote add origin &lt;b&gt;&amp;lt;repo_url&amp;gt;&lt;/b&gt;&lt;/font&gt;&lt;/div&gt;&lt;div style=&quot;text-align: justify;&quot;&gt;&lt;font style=&quot;font-size: 10px;&quot; face=&quot;Lucida Console&quot;&gt;git push -u origin main&lt;/font&gt;&lt;/div&gt;" style="rounded=1;whiteSpace=wrap;html=1;shadow=1;" parent="RTWtIBDPe_BRNrza61l3-23" vertex="1">
          <mxGeometry width="210" height="90" as="geometry" />
        </mxCell>
        <mxCell id="RTWtIBDPe_BRNrza61l3-21" value="" style="sketch=0;outlineConnect=0;fontColor=#232F3E;gradientColor=none;fillColor=#232F3D;strokeColor=none;dashed=0;verticalLabelPosition=bottom;verticalAlign=top;align=center;html=1;fontSize=12;fontStyle=0;aspect=fixed;pointerEvents=1;shape=mxgraph.aws4.source_code;" parent="RTWtIBDPe_BRNrza61l3-23" vertex="1">
          <mxGeometry x="180.76999999999998" width="29.23" height="40" as="geometry" />
        </mxCell>
        <mxCell id="RTWtIBDPe_BRNrza61l3-28" value="" style="group" parent="1" vertex="1" connectable="0">
          <mxGeometry x="920" y="50" width="230.00285714285715" height="90" as="geometry" />
        </mxCell>
        <mxCell id="RTWtIBDPe_BRNrza61l3-25" value="&lt;div style=&quot;text-align: justify;&quot;&gt;&lt;font face=&quot;Lucida Console&quot;&gt;&lt;span style=&quot;font-size: 10px;&quot;&gt;# if cookiecutter not installed&lt;/span&gt;&lt;/font&gt;&lt;/div&gt;&lt;div style=&quot;text-align: justify;&quot;&gt;&lt;font style=&quot;font-size: 10px;&quot; face=&quot;Lucida Console&quot;&gt;pip install cookiecutter&lt;/font&gt;&lt;/div&gt;&lt;div style=&quot;text-align: justify;&quot;&gt;&lt;font style=&quot;font-size: 10px;&quot; face=&quot;Lucida Console&quot;&gt;# copy cookiecutter url from&amp;nbsp;&lt;/font&gt;&lt;/div&gt;&lt;div style=&quot;text-align: justify;&quot;&gt;&lt;font face=&quot;Lucida Console&quot;&gt;&lt;span style=&quot;font-size: 10px;&quot;&gt;cookiecutter&lt;b&gt;&amp;lt;cookiecutter-data-science_url&amp;gt;&lt;/b&gt;&lt;br&gt;&lt;/span&gt;&lt;/font&gt;&lt;/div&gt;" style="rounded=1;whiteSpace=wrap;html=1;shadow=1;" parent="RTWtIBDPe_BRNrza61l3-28" vertex="1">
          <mxGeometry x="-50" width="280" height="90" as="geometry" />
        </mxCell>
        <mxCell id="RTWtIBDPe_BRNrza61l3-20" value="" style="sketch=0;outlineConnect=0;fontColor=#232F3E;gradientColor=none;fillColor=#232F3D;strokeColor=none;dashed=0;verticalLabelPosition=bottom;verticalAlign=top;align=center;html=1;fontSize=12;fontStyle=0;aspect=fixed;pointerEvents=1;shape=mxgraph.aws4.source_code;" parent="RTWtIBDPe_BRNrza61l3-28" vertex="1">
          <mxGeometry x="200.77285714285716" width="29.23" height="40" as="geometry" />
        </mxCell>
        <mxCell id="RTWtIBDPe_BRNrza61l3-36" value="" style="group" parent="1" vertex="1" connectable="0">
          <mxGeometry x="470" y="200" width="110" height="80" as="geometry" />
        </mxCell>
        <mxCell id="RTWtIBDPe_BRNrza61l3-2" value="group&lt;br&gt;&lt;b&gt;&lt;i&gt;&amp;nbsp;&amp;lt;customer&amp;gt;&lt;br&gt;&lt;/i&gt;&lt;/b&gt;exists" style="rhombus;whiteSpace=wrap;html=1;" parent="RTWtIBDPe_BRNrza61l3-36" vertex="1">
          <mxGeometry x="10" width="100" height="80" as="geometry" />
        </mxCell>
        <mxCell id="RTWtIBDPe_BRNrza61l3-37" value="" style="group" parent="1" vertex="1" connectable="0">
          <mxGeometry x="637.5" y="140" width="182.5" height="70" as="geometry" />
        </mxCell>
        <mxCell id="RTWtIBDPe_BRNrza61l3-10" value="create a repository&amp;nbsp;&lt;br&gt;&lt;b style=&quot;border-color: var(--border-color);&quot;&gt;&lt;i style=&quot;border-color: var(--border-color);&quot;&gt;&lt;font style=&quot;border-color: var(--border-color);&quot; color=&quot;#ff9933&quot;&gt;&amp;lt;customer-project-name&amp;gt;&lt;/font&gt;&lt;/i&gt;&lt;/b&gt;&amp;nbsp;&lt;br&gt;inside the group" style="rounded=0;whiteSpace=wrap;html=1;" parent="RTWtIBDPe_BRNrza61l3-37" vertex="1">
          <mxGeometry x="12.5" y="10" width="170" height="60" as="geometry" />
        </mxCell>
        <mxCell id="RTWtIBDPe_BRNrza61l3-33" value="" style="verticalLabelPosition=bottom;html=1;verticalAlign=top;align=center;strokeColor=none;fillColor=#00BEF2;shape=mxgraph.azure.git_repository;" parent="RTWtIBDPe_BRNrza61l3-37" vertex="1">
          <mxGeometry width="30" height="30" as="geometry" />
        </mxCell>
        <mxCell id="RTWtIBDPe_BRNrza61l3-38" value="" style="group" parent="1" vertex="1" connectable="0">
          <mxGeometry x="870" y="150" width="280" height="60" as="geometry" />
        </mxCell>
        <mxCell id="RTWtIBDPe_BRNrza61l3-16" value="use project template&amp;nbsp;&lt;i&gt;&lt;font color=&quot;#ff9933&quot;&gt;cookiecutter-data-science&lt;/font&gt;&lt;/i&gt; in your local workspace" style="rounded=0;whiteSpace=wrap;html=1;" parent="RTWtIBDPe_BRNrza61l3-38" vertex="1">
          <mxGeometry width="280" height="60" as="geometry" />
        </mxCell>
        <mxCell id="RTWtIBDPe_BRNrza61l3-34" value="" style="verticalLabelPosition=bottom;html=1;verticalAlign=top;align=center;strokeColor=none;fillColor=#00BEF2;shape=mxgraph.azure.laptop;pointerEvents=1;" parent="RTWtIBDPe_BRNrza61l3-38" vertex="1">
          <mxGeometry y="40" width="30" height="20" as="geometry" />
        </mxCell>
        <mxCell id="RTWtIBDPe_BRNrza61l3-39" value="" style="group" parent="1" vertex="1" connectable="0">
          <mxGeometry x="1210" y="150" width="150" height="60" as="geometry" />
        </mxCell>
        <mxCell id="RTWtIBDPe_BRNrza61l3-18" value="link your local folder to the remote" style="rounded=0;whiteSpace=wrap;html=1;" parent="RTWtIBDPe_BRNrza61l3-39" vertex="1">
          <mxGeometry width="150" height="60" as="geometry" />
        </mxCell>
        <mxCell id="RTWtIBDPe_BRNrza61l3-35" value="" style="verticalLabelPosition=bottom;html=1;verticalAlign=top;align=center;strokeColor=none;fillColor=#00BEF2;shape=mxgraph.azure.laptop;pointerEvents=1;" parent="RTWtIBDPe_BRNrza61l3-39" vertex="1">
          <mxGeometry y="40" width="30" height="20" as="geometry" />
        </mxCell>
        <mxCell id="RTWtIBDPe_BRNrza61l3-56" style="edgeStyle=orthogonalEdgeStyle;rounded=0;orthogonalLoop=1;jettySize=auto;html=1;exitX=1;exitY=0.25;exitDx=0;exitDy=0;entryX=-0.009;entryY=0.372;entryDx=0;entryDy=0;shadow=0;dashed=1;entryPerimeter=0;" parent="1" source="RTWtIBDPe_BRNrza61l3-44" target="RTWtIBDPe_BRNrza61l3-55" edge="1">
          <mxGeometry relative="1" as="geometry" />
        </mxCell>
        <mxCell id="RTWtIBDPe_BRNrza61l3-61" value="independent &lt;br&gt;experiments" style="edgeLabel;html=1;align=center;verticalAlign=middle;resizable=0;points=[];" parent="RTWtIBDPe_BRNrza61l3-56" vertex="1" connectable="0">
          <mxGeometry x="-0.2638" y="-2" relative="1" as="geometry">
            <mxPoint x="10" y="-14" as="offset" />
          </mxGeometry>
        </mxCell>
        <mxCell id="RTWtIBDPe_BRNrza61l3-44" value="&amp;nbsp;branch&amp;nbsp;&lt;b style=&quot;border-color: var(--border-color);&quot;&gt;&lt;i style=&quot;border-color: var(--border-color);&quot;&gt;dev&lt;/i&gt;&lt;/b&gt;" style="rounded=1;whiteSpace=wrap;html=1;fillColor=#FF9933;" parent="1" vertex="1">
          <mxGeometry x="1224.96" y="239" width="120.08" height="51" as="geometry" />
        </mxCell>
        <mxCell id="zIh2OHhjwxsGoTC7HjIQ-3" style="edgeStyle=orthogonalEdgeStyle;rounded=0;orthogonalLoop=1;jettySize=auto;html=1;exitX=0.5;exitY=1;exitDx=0;exitDy=0;entryX=0.5;entryY=0;entryDx=0;entryDy=0;" parent="1" source="RTWtIBDPe_BRNrza61l3-46" target="zIh2OHhjwxsGoTC7HjIQ-1" edge="1">
          <mxGeometry relative="1" as="geometry" />
        </mxCell>
        <mxCell id="RTWtIBDPe_BRNrza61l3-46" value="branch&amp;nbsp;&lt;b style=&quot;font-style: italic;&quot;&gt;main&lt;/b&gt;" style="rounded=1;whiteSpace=wrap;html=1;fillColor=#97D077;" parent="1" vertex="1">
          <mxGeometry x="1230" y="330" width="110" height="40" as="geometry" />
        </mxCell>
        <mxCell id="RTWtIBDPe_BRNrza61l3-52" style="edgeStyle=orthogonalEdgeStyle;rounded=0;orthogonalLoop=1;jettySize=auto;html=1;exitX=0.5;exitY=1;exitDx=0;exitDy=0;" parent="1" source="RTWtIBDPe_BRNrza61l3-18" target="RTWtIBDPe_BRNrza61l3-44" edge="1">
          <mxGeometry relative="1" as="geometry" />
        </mxCell>
        <mxCell id="RTWtIBDPe_BRNrza61l3-55" value="&lt;br&gt;create branch&amp;nbsp;&amp;nbsp;&lt;br&gt;&lt;i style=&quot;font-weight: bold;&quot;&gt;feature/&amp;lt;reference&amp;gt;&amp;nbsp;&lt;/i&gt;(if new feat) /&amp;nbsp;&lt;i style=&quot;border-color: var(--border-color); font-weight: bold;&quot;&gt;bugfix&amp;lt;reference&amp;gt;&amp;nbsp;&lt;/i&gt;(if bugfix)&lt;br&gt;&amp;nbsp;" style="rounded=1;whiteSpace=wrap;html=1;fillColor=#CCFFFF;" parent="1" vertex="1">
          <mxGeometry x="1490" y="230" width="200.05" height="60" as="geometry" />
        </mxCell>
        <mxCell id="RTWtIBDPe_BRNrza61l3-65" style="edgeStyle=orthogonalEdgeStyle;rounded=0;orthogonalLoop=1;jettySize=auto;html=1;exitX=0.5;exitY=1;exitDx=0;exitDy=0;entryX=0.5;entryY=0;entryDx=0;entryDy=0;" parent="1" source="RTWtIBDPe_BRNrza61l3-44" target="RTWtIBDPe_BRNrza61l3-46" edge="1">
          <mxGeometry relative="1" as="geometry">
            <mxPoint x="1320" y="304" as="sourcePoint" />
            <mxPoint x="1320" y="334" as="targetPoint" />
          </mxGeometry>
        </mxCell>
        <mxCell id="RTWtIBDPe_BRNrza61l3-66" value="merge" style="edgeLabel;html=1;align=center;verticalAlign=middle;resizable=0;points=[];" parent="RTWtIBDPe_BRNrza61l3-65" vertex="1" connectable="0">
          <mxGeometry x="0.0939" y="-2" relative="1" as="geometry">
            <mxPoint x="2" y="-2" as="offset" />
          </mxGeometry>
        </mxCell>
        <mxCell id="RTWtIBDPe_BRNrza61l3-68" style="edgeStyle=orthogonalEdgeStyle;rounded=0;orthogonalLoop=1;jettySize=auto;html=1;exitX=0;exitY=0.75;exitDx=0;exitDy=0;shadow=0;dashed=1;entryX=1;entryY=0.75;entryDx=0;entryDy=0;" parent="1" source="RTWtIBDPe_BRNrza61l3-55" target="RTWtIBDPe_BRNrza61l3-44" edge="1">
          <mxGeometry relative="1" as="geometry">
            <mxPoint x="1360" y="289.61" as="sourcePoint" />
            <mxPoint x="1350" y="275" as="targetPoint" />
          </mxGeometry>
        </mxCell>
        <mxCell id="RTWtIBDPe_BRNrza61l3-69" value="merge" style="edgeLabel;html=1;align=center;verticalAlign=middle;resizable=0;points=[];" parent="RTWtIBDPe_BRNrza61l3-68" vertex="1" connectable="0">
          <mxGeometry x="-0.2638" y="-2" relative="1" as="geometry">
            <mxPoint x="-16" y="7" as="offset" />
          </mxGeometry>
        </mxCell>
        <mxCell id="zIh2OHhjwxsGoTC7HjIQ-4" style="edgeStyle=orthogonalEdgeStyle;rounded=0;orthogonalLoop=1;jettySize=auto;html=1;exitX=0.5;exitY=1;exitDx=0;exitDy=0;entryX=0.5;entryY=0;entryDx=0;entryDy=0;" parent="1" source="zIh2OHhjwxsGoTC7HjIQ-1" target="zIh2OHhjwxsGoTC7HjIQ-2" edge="1">
          <mxGeometry relative="1" as="geometry" />
        </mxCell>
        <mxCell id="zIh2OHhjwxsGoTC7HjIQ-1" value="branch&amp;nbsp;&lt;b style=&quot;font-style: italic;&quot;&gt;staging&lt;/b&gt;" style="rounded=1;whiteSpace=wrap;html=1;fillColor=#FFFF33;" parent="1" vertex="1">
          <mxGeometry x="1230" y="430" width="110" height="40" as="geometry" />
        </mxCell>
        <mxCell id="zIh2OHhjwxsGoTC7HjIQ-2" value="branch&amp;nbsp;&lt;b style=&quot;font-style: italic;&quot;&gt;prod&lt;/b&gt;" style="rounded=1;whiteSpace=wrap;html=1;fillColor=#7EA6E0;" parent="1" vertex="1">
          <mxGeometry x="1230" y="490" width="110" height="40" as="geometry" />
        </mxCell>
        <mxCell id="zIh2OHhjwxsGoTC7HjIQ-7" value="&lt;b&gt;If deployment&lt;br&gt;to external servers&amp;nbsp;&lt;/b&gt;" style="text;html=1;align=center;verticalAlign=middle;resizable=0;points=[];autosize=1;strokeColor=none;fillColor=none;rotation=0;" parent="1" vertex="1">
          <mxGeometry x="1144" y="375" width="130" height="40" as="geometry" />
        </mxCell>
        <mxCell id="l6qQuCx8Cb2vMG7cOWxI-1" value="&lt;b&gt;CONTEXT&lt;/b&gt;" style="text;html=1;align=center;verticalAlign=middle;resizable=0;points=[];autosize=1;strokeColor=none;fillColor=none;" parent="1" vertex="1">
          <mxGeometry x="320" y="170" width="80" height="30" as="geometry" />
        </mxCell>
        <mxCell id="l6qQuCx8Cb2vMG7cOWxI-2" value="&lt;font color=&quot;#ffffff&quot;&gt;New&amp;nbsp;&lt;b style=&quot;border-color: var(--border-color);&quot;&gt;&amp;lt;project&amp;gt;&lt;/b&gt;&amp;nbsp;&lt;br&gt;with a&amp;nbsp;&lt;span style=&quot;border-color: var(--border-color);&quot;&gt;&lt;b&gt;&amp;lt;customer&amp;gt;&lt;br&gt;&lt;/b&gt;&lt;/span&gt;lambda&lt;/font&gt;" style="shape=process;whiteSpace=wrap;html=1;backgroundOutline=1;fillColor=#CC0066;strokeColor=#FFFFFF;shadow=1;" parent="1" vertex="1">
          <mxGeometry x="290" y="197.5" width="140" height="85" as="geometry" />
        </mxCell>
      </root>
    </mxGraphModel>
  </diagram>
</mxfile>
